<?xml version="1.0" encoding="UTF-8" standalone="no"?>
<svg
   onload="init()"
   aria-label="Calendar"
   role="img"
   viewBox="0 0 512 512"
   version="1.1"
   id="svg25487"
   sodipodi:docname="calendar.svg"
   inkscape:version="1.2.2 (b0a8486541, 2022-12-01)"
   xmlns:inkscape="http://www.inkscape.org/namespaces/inkscape"
   xmlns:sodipodi="http://sodipodi.sourceforge.net/DTD/sodipodi-0.dtd"
   xmlns="http://www.w3.org/2000/svg"
   xmlns:svg="http://www.w3.org/2000/svg">
  <defs
     id="defs25491" />
  <sodipodi:namedview
     id="namedview25489"
     pagecolor="#ffffff"
     bordercolor="#000000"
     borderopacity="0.25"
     inkscape:showpageshadow="2"
     inkscape:pageopacity="0.0"
     inkscape:pagecheckerboard="0"
     inkscape:deskcolor="#d1d1d1"
     showgrid="false"
     inkscape:zoom="1.2285156"
     inkscape:cx="156.28617"
     inkscape:cy="256.81399"
     inkscape:window-width="1536"
     inkscape:window-height="795"
     inkscape:window-x="0"
     inkscape:window-y="0"
     inkscape:window-maximized="1"
     inkscape:current-layer="svg25487" />
  <script
     type="text/ecmascript"
     id="script25464"><![CDATA[
function init() {
  var time = new Date();
  var locale = "en-gb";

  var DD   = time.getDate();
  var DDD  = time.toLocaleString(locale, {weekday: "long" });
  var MMM  = time.toLocaleString(locale, {month:   "short"}).toUpperCase();

  document.getElementById("day").textContent= DD;
  document.getElementById("weekday").textContent= DDD;
  document.getElementById("month").textContent= MMM;
  
  // var DDDD = time.toLocaleString(locale, { weekday: "long" });
  // var MM   = time.getMonth() + 1;
  // var MMMM = time.toLocaleString(locale, {month: "long"});
  // var YYYY = time.getFullYear();
}
]]></script>
  <path
     d="M512 455c0 32-25 57-57 57H57c-32 0-57-25-57-57V128c0-31 25-57 57-57h398c32 0 57 26 57 57z"
     fill="#e0e7ec"
     id="path25466"
     style="fill:#e0e7ec;fill-opacity:1" />
  <path
     d="M484 0h-47c2 4 4 9 4 14a28 28 0 1 1-53-14H124c3 4 4 9 4 14A28 28 0 1 1 75 0H28C13 0 0 13 0 28v157h512V28c0-15-13-28-28-28z"
     fill="#dd2f45"
     id="path25468"
     style="fill:#000000" />
  <g
     fill="#f3aab9"
     id="g25482"
     style="fill:#e0e7ec;fill-opacity:1">
    <circle
       cx="470"
       cy="142"
       r="14"
       id="circle25470"
       style="fill:#e0e7ec;fill-opacity:1" />
    <circle
       cx="470"
       cy="100"
       r="14"
       id="circle25472"
       style="fill:#e0e7ec;fill-opacity:1" />
    <circle
       cx="427"
       cy="142"
       r="14"
       id="circle25474"
       style="fill:#e0e7ec;fill-opacity:1" />
    <circle
       cx="427"
       cy="100"
       r="14"
       id="circle25476"
       style="fill:#e0e7ec;fill-opacity:1" />
    <circle
       cx="384"
       cy="142"
       r="14"
       id="circle25478"
       style="fill:#e0e7ec;fill-opacity:1" />
    <circle
       cx="384"
       cy="100"
       r="14"
       id="circle25480"
       style="fill:#e0e7ec;fill-opacity:1" />
  </g>
  <text
     id="month"
     x="112"
     y="164"
     fill="#ffffff"
     font-family="monospace"
     font-size="140px"
     style="font-size:126.667px;-inkscape-font-specification:monospace;font-family:monospace;font-weight:normal;font-style:normal;font-stretch:normal;font-variant:normal">AUG</text>
  <text
     id="month-3"
     x="178.5822"
     y="62.772427"
     fill="#ffffff"
     font-family="monospace"
     font-size="140px"
     style="font-size:64px">2026</text>
  <text
     id="day"
     x="256"
     y="400"
     fill="#66757f"
     font-family="monospace"
     font-size="256px"
     style="text-anchor:middle;fill:#000000">8</text>
  <text
     id="weekday"
     x="256"
     y="480"
     fill="#66757f"
     font-family="monospace"
     font-size="64px"
     style="text-anchor:middle;fill:#000000">Saturday</text>
</svg>
