<?xml version="1.0" encoding="UTF-8" standalone="no"?>
<svg
   shape-rendering="geometricPrecision"
   text-rendering="geometricPrecision"
   image-rendering="optimizeQuality"
   fill-rule="evenodd"
   clip-rule="evenodd"
   viewBox="0 0 512 497.34"
   version="1.1"
   id="svg26269"
   sodipodi:docname="guest-info-icon.svg"
   inkscape:version="1.2.2 (b0a8486541, 2022-12-01)"
   xml:space="preserve"
   xmlns:inkscape="http://www.inkscape.org/namespaces/inkscape"
   xmlns:sodipodi="http://sodipodi.sourceforge.net/DTD/sodipodi-0.dtd"
   xmlns="http://www.w3.org/2000/svg"
   xmlns:svg="http://www.w3.org/2000/svg"><defs
     id="defs26273" /><sodipodi:namedview
     id="namedview26271"
     pagecolor="#ffffff"
     bordercolor="#000000"
     borderopacity="0.25"
     inkscape:showpageshadow="2"
     inkscape:pageopacity="0.0"
     inkscape:pagecheckerboard="0"
     inkscape:deskcolor="#d1d1d1"
     showgrid="false"
     inkscape:zoom="0.3161821"
     inkscape:cx="164.46219"
     inkscape:cy="-166.04356"
     inkscape:window-width="1366"
     inkscape:window-height="699"
     inkscape:window-x="0"
     inkscape:window-y="0"
     inkscape:window-maximized="1"
     inkscape:current-layer="svg26269" /><path
     fill-rule="nonzero"
     d="m 479.66,181.91 c 3.25,-2.8 6.85,-4.04 10.59,-4.04 12.37,0 21.75,14.47 21.75,25.76 v 269.1 c 0,13.49 -11.12,24.61 -24.62,24.61 H 24.61 C 11.11,497.34 0,486.22 0,472.73 v -269.1 c 0,-11.23 9.26,-25.77 21.75,-25.77 2.94,0 5.8,0.76 8.46,2.47 V 11.91 C 30.21,5.33 35.55,0 42.14,0 h 338.28 c 3.68,0 6.97,1.66 9.16,4.29 l 86.69,78.17 c 2.24,2.31 3.37,5.29 3.37,8.28 h 0.02 z M 376.49,22.44 H 54.05 V 201.32 L 253.5,366.9 455.83,202.73 V 93.56 Z M 488.17,440.33 V 206.02 L 332.71,329.25 Z M 177.18,330.55 23.83,206.15 v 233.63 z m 68.32,61.04 -50.47,-45.1 -171.2,124.87 v 1.37 c 0,0.23 0.08,0.42 0.19,0.54 l 0.05,0.04 c 0.12,0.11 0.3,0.19 0.54,0.19 h 462.77 c 0.24,0 0.43,-0.08 0.55,-0.19 v 0.01 l 0.05,-0.06 c 0.12,-0.11 0.19,-0.3 0.19,-0.54 v -0.81 L 314.66,345 l -53.42,46.69 -0.01,-0.01 c -4.44,3.9 -11.21,3.94 -15.73,-0.09 z"
     id="path26267"
     sodipodi:nodetypes="csssssssscssscccccccccccccccccccccccsccsscccsccccc"
     inkscape:export-filename="guest-info-icon.png"
     inkscape:export-xdpi="96"
     inkscape:export-ydpi="96" /><path
     style="opacity:1;fill:#000000;fill-opacity:1;fill-rule:evenodd;stroke:none;stroke-width:8.91473;stroke-linejoin:round;paint-order:markers stroke fill"
     d="m 318.23561,220.09006 c 0.6031,-2.25048 1.12026,-12.27535 1.14924,-22.27749 0.0561,-19.37819 0.50945,-21.02158 6.69707,-24.27847 5.59776,-2.94644 6.74898,-2.69434 12.09088,2.64753 4.48954,4.48954 4.76518,5.85035 5.24906,25.91465 l 0.51069,21.17629 h 20.0043 20.0043 v -39.0993 -39.0993 h -4.54644 -4.54643 l -0.49566,33.18894 -0.49567,33.18893 h -9.96112 -9.96113 v -16.09576 c 0,-19.45673 -2.01176,-25.87852 -10.02065,-31.9872 -11.64631,-8.88308 -26.97362,-4.75641 -33.66371,9.06349 -2.73875,5.65746 -3.59852,11.20686 -3.59852,23.2265 v 15.79297 h -9.09286 -9.09286 v -30.56813 c 0,-23.7746 -0.58257,-31.35268 -2.62135,-34.09823 -2.09809,-2.82543 -3.27788,-3.12788 -5.91035,-1.51522 -2.95441,1.80989 -3.34156,5.51015 -3.80546,36.37145 -0.28403,18.89612 -0.0638,36.19787 0.4893,38.44835 0.96609,3.93054 1.78434,4.09179 20.76327,4.09179 18.95201,0 19.80225,-0.16682 20.8541,-4.09179 z m -51.83245,-72.59921 c 3.6328,-3.17169 16.42536,-14.96468 28.42795,-26.20665 12.00257,-11.24198 25.08676,-23.315914 29.07598,-26.830965 l 7.25312,-6.391021 10.04045,9.410862 c 36.55213,34.260134 55.03503,51.227474 58.2763,53.497754 9.01495,6.31431 12.88947,-6.0889 4.2272,-13.53218 -4.14443,-3.56119 -41.40351,-38.023864 -46.89805,-43.378198 -11.96697,-11.661609 -23.56942,-20.820094 -26.37598,-20.820094 -1.90397,0 -6.23107,2.659662 -9.61577,5.910356 -3.38471,3.250705 -20.2313,18.952182 -37.43686,34.892196 -17.20555,15.94001 -31.28284,30.30219 -31.28284,31.91595 0,3.20574 3.38373,7.29868 6.03399,7.29868 0.91818,0 4.64171,-2.59501 8.27451,-5.76669 z"
     id="path2746"
     clip-path="none"
     sodipodi:nodetypes="ssssscccccccccccsssscccsssssssssscssssssssss" /><path
     style="opacity:1;fill:#000000;fill-opacity:1;fill-rule:evenodd;stroke:none;stroke-width:4.03435;stroke-linejoin:round;paint-order:markers stroke fill"
     d="m 149.49697,196.92774 c -1.92686,-1.60985 -3.77118,-2.927 -4.09851,-2.927 -1.45963,0 -20.95976,-20.35677 -25.01742,-26.11645 -8.14846,-11.56641 -11.14755,-17.46809 -15.91496,-31.3179 -2.20616,-6.40908 -3.13693,-10.65701 -3.4087,-15.55692 -0.34381,-6.19893 -0.17307,-7.16948 2.12541,-12.08119 4.25249,-9.087404 15.10699,-18.841265 22.1082,-19.866483 3.05954,-0.448018 3.24442,-0.333261 5.59946,3.475553 14.77205,23.89097 16.38306,26.93958 15.30269,28.95826 -0.47172,0.88143 -4.19877,4.46007 -8.28233,7.95254 -4.08356,3.49247 -7.63156,7.17438 -7.88445,8.18202 -1.86602,7.43477 9.6951,22.6777 29.58948,39.01269 8.8013,7.22661 19.44381,14.06592 21.88772,14.06592 1.39977,0 3.17824,-1.2989 5.76178,-4.20816 2.05537,-2.31449 5.65059,-6.2864 7.98935,-8.82646 l 4.25233,-4.6183 2.74312,1.42209 c 1.50871,0.78214 4.80079,2.62456 7.31574,4.09423 2.51494,1.46971 6.40357,3.74131 8.64141,5.04799 10.75767,6.28145 12.71078,7.8483 12.69374,10.18323 -0.009,1.24016 -1.21267,4.54694 -2.67473,7.34844 -4.9636,9.51099 -15.46057,16.44909 -26.23436,17.33994 -16.62217,-1.04517 -39.46079,-11.25581 -52.49497,-21.56404 z"
     id="path4234"
     sodipodi:nodetypes="csssssssssssssscssssscc" /></svg>
