<?xml version="1.0" encoding="UTF-8"?>
<svg width="765" height="990" xmlns="http://www.w3.org/2000/svg" xmlns:xlink="http://www.w3.org/1999/xlink">
 <title>keret</title>
 <defs>
  <symbol id="svg_113">
   <g display="inline" id="svg_111">
    <path fill="#000000" fill-rule="evenodd" stroke-miterlimit="4" id="svg_112" d="m65.84375,57.875l9.90625,-2.46875c14.625389,-20.9744 56.670258,-31.856279 89.5625,5.9375l6.46875,-3.6875c-27.790955,-34.17252 -78.877373,-40.621799 -105.9375,0.21875zm-6.944832,38.872253l-1.166389,-7.588257c-47.378459,-20.217323 -14.875618,-68.461597 14.798721,-49.065247l5.634209,-4.763779c-40.195667,-28.807642 -84.289099,37.454155 -19.266541,61.417282zm123.476082,-28.216003l-4.90625,3.28125c75.961716,66.964523 116.155945,-66.19318 192.5625,-12.09375c-75.605988,-62.4242 -116.532654,68.432617 -187.65625,8.8125zm-53.65625,16.0625l1.024796,6.49173c38.683548,-5.578247 83.897247,-71.58164 137.52623,-29.10564l4.549835,-3.97448c-56.78157,-49.00089 -109.153915,20.993259 -143.100861,26.58839zm-38.625,-38.625l-4.84375,4.34375c9.996407,10.387371 10.213287,21.030991 11.650742,37.920967l7.193008,-1.327217c-0.886299,-15.138634 -2.504829,-29.79837 -14,-40.9375zm12.144287,13.446701l1.601143,6.269302c13.613609,4.496765 18.04306,16.40403 14.50457,38.408997l6.284012,-0.350197c3.714539,-23.099861 0.570549,-39.330696 -22.389725,-44.328102zm-39.797787,17.261032c-3.33448,12.645706 -1.36652,41.171478 30.091,41.323517l1.15625,-6.5c-25.588593,-1.017418 -27.093773,-23.306686 -22.09375,-38.90625l-9.1535,4.082733zm-26.409,10.573517c-36.96279,69.940155 103.088852,89.263382 29.441597,195.59375l2.245903,6.28125c82.637985,-109.47757 -57.00327,-136.944382 -25.5625,-196.875l-6.125,-5zm78.363983,0.471497c-11.954712,4.37001 -27.349663,5.606377 -40.012917,5.236237l1.194901,5.670013c9.536224,1.275352 31.204941,-1.604538 39.454033,-4.627747l-0.636017,-6.278503zm-16.832733,13.872253c-0.182938,20.983147 1.144737,41.574478 -24.6875,63.59375l3.84375,5.34375c26.054962,-20.618011 27.497787,-39.586075 27.3125,-70.000938l-6.46875,1.063438zm9.46875,8.75l0.426483,6.89798c43.571289,-12.031578 45.945053,12.045547 38.354767,20.25827c-7.590286,8.212723 -24.994438,1.821487 -22.625,-19.09375l-6.07077,0.369492c-3.8507,25.166306 20.611267,37.605026 34.22702,24.126404c13.542725,-13.406326 3.471252,-46.657173 -44.3125,-32.558395zm-44.9375,63.78125c-55.53414,54.35997 15.592911,130.911194 15.109306,173.993774c-0.480659,42.818787 -29.027905,59.97464 -29.855038,97.017792c-0.829029,37.128418 23.824764,66.106781 22.790768,77.723236c-1.033997,11.616394 -16.029106,12.9776 -15.762966,-2.406128c-3.343319,19.483826 18.622761,18.168701 18.220379,0.931946c-0.402,-17.220825 -21.508099,-38.522522 -20.85799,-75.158966c0.661819,-37.296539 28.8894,-48.455902 30.464848,-98.10788c1.575462,-49.652008 -68.151446,-116.042831 -15.234306,-169.681274l-4.875,-4.3125zm26.282928,-114.842369c-17.544006,0.049408 -33.88578,7.57354 -42.578999,17.365402l5.92107,4.758217c7.199928,-7.039238 19.513153,-16.139618 39,-15.46875l-2.342072,-6.654869zm462.482208,15.4161c-16.347778,-0.917984 -40.681305,-21.984619 -97.033478,-21.5299c-56.352173,0.45472 -122.680206,52.935165 -168.950409,15.331169l-3.65625,4.40625c49.638855,41.69236 117.538818,-14.456928 172.606659,-14.831169c55.06781,-0.374241 76.367645,18.048668 96.470978,19.5299c20.103394,1.481232 24.169922,-22.19062 -1.798828,-19.584961c22.447876,1.37616 18.709167,17.596687 2.361328,16.678711zm-494.906128,218.818726c0,0 -13.46756,22.533539 -14.705299,35.334747c-1.239708,12.821655 -2.017338,24.873383 8.627712,35.800964c-6.336613,-11.474091 -6.710491,-15.965881 -5.541611,-31.522217c1.168888,-15.556335 14.66848,-33.498505 14.66848,-33.498505l-3.049282,-6.11499z"/>
   </g>
   <g display="inline" id="svg_86">
    <g id="svg_108">
     <path fill="#000000" fill-rule="evenodd" stroke-width="1px" id="svg_110" d="m218.459229,85.311279c6.852188,-1.430481 10.774521,-4.029579 11.243515,-6.386642c-0.496078,-3.114967 -7.43512,-1.013184 -6.216858,-9.610046c0.880447,-6.213062 4.52272,-1.699783 8.103668,0.058296c0.360413,-2.442497 -14.521591,-8.871918 -7.314514,-13.038788c13.730255,-3.371357 13.045883,4.433472 14.4422,11.532242c0.192307,-2.332474 1.046127,-3.623009 0.249512,-6.047031c3.535217,2.185558 5.129684,2.244221 5.978134,6.756374c1.545197,8.2174 -13.783356,17.920197 -26.485657,16.735596z"/>
     <path fill="#ffffff" fill-rule="evenodd" stroke-width="1px" id="svg_109" d="m228.30722,82.484909c5.556015,-1.825851 15.084732,-13.869316 0.244156,-23.877819c17.76265,9.172001 5.80899,22.93832 -0.244156,23.877819z"/>
    </g>
    <g transform="matrix(1.058166,0.000000,0.000000,1.058166,-15.74276,1.287003)" id="svg_105">
     <path fill="#000000" fill-rule="evenodd" stroke-width="1px" id="svg_107" d="m202.307831,42.38969c-1.766525,4.78508 -6.347885,7.931301 -10.910187,9.19397c5.14653,-3.717751 9.439163,-7.232601 6.497086,-11.277939c-2.083969,-2.942093 -9.469696,6.168999 -12.749008,1.961369c-3.220184,-4.131802 -0.351624,-4.169762 2.696915,-6.987431c-2.607681,-1.168919 -13.153961,11.266502 -15.691071,1.716221c-2.45726,-9.2498 8.347397,-9.772501 16.671768,-8.70363c-2.536545,-0.971569 -4.856903,-1.072029 -7.84552,-0.980721c-0.995331,-4.33091 3.550781,-6.779219 10.052078,-5.026039c9.390457,2.532299 13.058731,15.280512 11.277939,20.1042z"/>
     <path fill="#ffffff" fill-rule="evenodd" stroke-width="1px" id="svg_106" d="m196.607925,48.193451c10.343048,-11.27039 -2.002533,-21.59095 -21.139557,-13.496391c20.432281,-11.833189 33.799866,3.812992 21.139557,13.496391z"/>
    </g>
    <g transform="matrix(-0.797937,-0.770316,0.736096,-0.835031,171.0075,409.9807)" id="svg_102">
     <path fill="#000000" fill-rule="evenodd" stroke-width="1px" id="svg_104" d="m237.225037,92.041527c-12.269226,-0.557114 -10.958633,-8.78434 -7.110596,-13.089699c-0.496078,-3.114975 -9.058212,-1.686615 -7.839966,-10.283478c0.880447,-6.213051 4.52272,-1.699783 8.103683,0.058296c0.360413,-2.442497 -12.849564,-9.412487 -5.642471,-13.579365c8.485443,-2.540531 12.927704,5.2104 13.582047,11.323849c0.192307,-2.332474 0.081772,-3.40131 1.671219,-4.68689c5.019852,1.984848 2.350723,8.869202 -0.995316,11.686592c-4.504791,3.79303 -17.992111,14.106735 -1.7686,18.570694z"/>
     <path fill="#ffffff" fill-rule="evenodd" stroke-width="1px" id="svg_103" d="m234.298599,75.954018c4.138855,-6.692497 -0.369339,-14.994648 -5.747223,-17.346928c7.612961,2.32914 10.427597,11.573208 5.747223,17.346928z"/>
    </g>
    <g transform="matrix(1.113999,-0.558282,-0.601987,-1.056258,-147.4469,648.8048)" id="svg_99">
     <path fill="#000000" fill-rule="evenodd" stroke-width="1px" id="svg_101" d="m238.42627,98.729317c-12.703766,-5.951714 -11.63945,-16.263687 -7.791412,-20.569054c0.489548,-3.045631 -11.466034,-7.239082 -5.046371,-12.9011c1.102188,2.501518 1.609009,3.785355 2.78212,3.12664c2.427917,-1.363297 -6.5793,-5.375343 -5.050903,-10.055164c2.107864,-6.454189 15.06752,-1.897278 15.616776,7.665882c0.667358,-1.993263 0.221725,-2.737419 -0.402893,-4.476051c5.284637,3.689552 4.495499,10.931534 0.4245,12.559433c-6.229462,2.49102 -17.153305,12.129318 -0.531815,24.649414z"/>
     <path fill="#ffffff" fill-rule="evenodd" stroke-width="1px" id="svg_100" d="m232.368134,77.085373c2.197433,-5.37928 5.099121,-11.874474 -5.515182,-18.722553c11.254211,4.988922 9.434219,11.807407 5.515182,18.722553z"/>
    </g>
    <g transform="matrix(-0.739909,-0.625125,-0.654893,0.870696,526.3586,146.7770)" id="svg_96">
     <path fill="#000000" fill-rule="evenodd" stroke-width="1px" id="svg_98" d="m198.028488,32.922779c3.366135,0.53257 4.844528,0.852291 8.88501,2.515842c-4.864441,-0.987961 -10.524796,-3.548452 -10.474457,1.268539c0.029556,2.827469 -6.331085,10.414478 -11.29332,5.559929c-3.398087,-3.670658 0.166092,-4.93441 1.866806,-6.310398c-2.607681,-1.168922 -10.022583,9.655148 -14.860962,1.039188c-5.301636,-9.44091 8.637665,-10.56723 14.93718,-8.886789c-2.536545,-0.971571 -7.309219,-0.378151 -6.249069,-5.35174c2.315475,-1.71759 6.383347,-1.362862 11.029221,1.583078c6.305664,3.998411 5.122528,5.763311 6.159592,8.58235z"/>
     <path fill="#ffffff" fill-rule="evenodd" stroke-width="1px" id="svg_97" d="m196.089035,33.221119c-2.886993,-0.85754 -10.717972,-3.546268 -21.84549,1.63792c10.381714,-6.346409 17.411011,-3.196209 21.84549,-1.63792z"/>
    </g>
    <g transform="matrix(-0.146052,-0.787728,-1.180668,0.172074,534.7522,209.9171)" id="svg_93">
     <path fill="#000000" fill-rule="evenodd" stroke-width="1px" id="svg_95" d="m190.103821,32.405869c2.619598,0.900791 13.515854,-1.060589 13.95929,13.42654c-3.258026,-11.854698 -7.727264,-10.259048 -13.92746,-11.143169c0.723892,2.931732 -4.467789,8.95401 -11.689056,8.209801c-3.134338,-3.005989 -0.403275,-4.863972 0.96936,-6.849609c-2.607681,-1.168922 -8.670242,8.707581 -14.860962,1.039188c-7.137238,-8.840818 8.637665,-10.567228 14.937164,-8.886789c-2.53653,-0.971569 -7.309204,-0.378149 -6.249069,-5.35174c2.315475,-1.71759 6.383347,-1.36286 11.029236,1.58308c6.305649,3.998419 4.794434,5.153669 5.831497,7.972698z"/>
     <path fill="#ffffff" fill-rule="evenodd" stroke-width="1px" id="svg_94" d="m187.974594,32.727692c-5.791107,-0.223751 -11.580811,-1.518242 -20.628845,1.853817c9.712204,-4.635408 13.581375,-2.648119 20.628845,-1.853817z"/>
    </g>
    <g transform="translate(-163.3680,155.9980)" id="svg_90">
     <path fill="#000000" fill-rule="evenodd" stroke-width="1px" id="svg_92" d="m211.089249,52.91407c-0.740463,17.968933 2.943909,27.753456 14.928497,27.085373c4.110168,-3.422066 -6.719467,-3.605995 -3.913742,-11.14547c1.800385,-4.837967 5.44397,-2.160416 9.48555,0.518913c0.82103,-2.135414 -14.060974,-6.415257 -6.700348,-13.192326c10.352356,-5.06031 13.967117,4.433468 15.363449,11.532238c0.806473,-1.411232 1.35321,-3.008842 0.556595,-5.432869c3.228134,0.803688 4.700607,2.633018 4.442719,6.602837c-0.52597,8.096512 -8.357391,14.797394 -18.381241,14.7313c-11.228378,-0.07402 -21.153381,-8.922676 -15.781479,-30.699997z"/>
     <path fill="#ffffff" fill-rule="evenodd" stroke-width="1px" id="svg_91" d="m227.232437,80.949501c8.824661,-0.646782 14.114426,-16.912163 1.318939,-22.342411c15.347366,4.49086 7.769455,23.165928 -1.318939,22.342411z"/>
    </g>
    <g transform="matrix(-0.185991,0.982551,-0.982551,-0.185991,170.4433,150.3537)" id="svg_87">
     <path fill="#000000" fill-rule="evenodd" stroke-width="1px" id="svg_89" d="m224.899506,85.888977c2.901077,-2.358337 4.100647,-3.311905 5.716034,-5.33931c-3.276657,-0.55703 -8.537689,-7.550835 -5.479248,-11.547501c3.678986,-4.807564 4.238113,2.10453 6.744873,0.315521c0.379303,-2.446075 -14.296982,-4.38266 -7.900711,-12.146488c8.346558,-6.571491 15.837326,3.279991 15.827927,9.707249c0.841537,-1.517761 0.793854,-2.63765 0.103729,-4.456749c5.374557,1.36858 5.515915,4.575211 6.176865,8.906509c0.734177,4.811104 -3.402847,9.746269 -8.188171,9.897461c-1.872299,0.059158 -3.073486,0.11982 -6.178833,-0.463364c-1.56395,0.532494 -3.405594,3.240807 -6.822464,5.126671z"/>
     <path fill="#ffffff" fill-rule="evenodd" stroke-width="1px" id="svg_88" d="m233.353485,79.185669c1.892761,-5.376816 4.289001,-14.099411 -5.723648,-20.091599c11.321198,5.565086 8.530746,14.919632 5.723648,20.091599z"/>
    </g>
   </g>
  </symbol>
 </defs>
 <g>
  <title>Layer 1</title>
  <use x="0" y="0" transform="matrix(1.34699, 0, 0, 1.43344, -14.6256, -16.3348)" xlink:href="#svg_113" id="svg_114"/>
  <use id="svg_115" x="329.454441" y="435.958389" transform="rotate(180, 382.385, 584.262) matrix(1.33663, 0, 0, 1.37291, -451.403, -397.965)" xlink:href="#svg_113"/>
 </g>
</svg>