<!--

https://github.com/datalog/qrcode-svg

--><svg viewBox="0 0 41 41" width="512" height="512" fill="#000000" shape-rendering="crispEdges" xmlns="http://www.w3.org/2000/svg" version="1.1"><path transform="matrix(1,0,0,1,4,4)" d="M31,32h1v1h-1v-1zM27,32h1v1h-1v-1zM22,32h4v1h-4v-1zM19,32h1v1h-1v-1zM17,32h1v1h-1v-1zM14,32h1v1h-1v-1zM11,32h1v1h-1v-1zM8,32h2v1h-2v-1zM0,32h7v1h-7v-1zM28,31h3v1h-3v-1zM23,31h1v1h-1v-1zM18,31h4v1h-4v-1zM16,31h1v1h-1v-1zM13,31h2v1h-2v-1zM9,31h1v1h-1v-1zM6,31h1v1h-1v-1zM0,31h1v1h-1v-1zM30,30h1v1h-1v-1zM21,30h7v1h-7v-1zM17,30h3v1h-3v-1zM13,30h1v1h-1v-1zM8,30h1v1h-1v-1zM6,30h1v1h-1v-1zM2,30h3v1h-3v-1zM0,30h1v1h-1v-1zM30,29h3v1h-3v-1zM28,29h1v1h-1v-1zM25,29h1v1h-1v-1zM23,29h1v1h-1v-1zM20,29h2v1h-2v-1zM15,29h2v1h-2v-1zM13,29h1v1h-1v-1zM8,29h2v1h-2v-1zM6,29h1v1h-1v-1zM2,29h3v1h-3v-1zM0,29h1v1h-1v-1zM31,28h1v1h-1v-1zM24,28h6v1h-6v-1zM21,28h1v1h-1v-1zM18,28h1v1h-1v-1zM15,28h1v1h-1v-1zM10,28h2v1h-2v-1zM8,28h1v1h-1v-1zM6,28h1v1h-1v-1zM2,28h3v1h-3v-1zM0,28h1v1h-1v-1zM28,27h4v1h-4v-1zM21,27h4v1h-4v-1zM15,27h1v1h-1v-1zM11,27h3v1h-3v-1zM8,27h2v1h-2v-1zM6,27h1v1h-1v-1zM0,27h1v1h-1v-1zM30,26h1v1h-1v-1zM28,26h1v1h-1v-1zM26,26h1v1h-1v-1zM20,26h5v1h-5v-1zM18,26h1v1h-1v-1zM15,26h2v1h-2v-1zM0,26h7v1h-7v-1zM32,25h1v1h-1v-1zM30,25h1v1h-1v-1zM28,25h1v1h-1v-1zM23,25h2v1h-2v-1zM19,25h3v1h-3v-1zM8,25h5v1h-5v-1zM24,24h6v1h-6v-1zM22,24h1v1h-1v-1zM17,24h1v1h-1v-1zM14,24h2v1h-2v-1zM4,24h7v1h-7v-1zM0,24h1v1h-1v-1zM29,23h2v1h-2v-1zM21,23h6v1h-6v-1zM18,23h1v1h-1v-1zM15,23h1v1h-1v-1zM12,23h2v1h-2v-1zM10,23h1v1h-1v-1zM8,23h1v1h-1v-1zM5,23h1v1h-1v-1zM2,23h1v1h-1v-1zM0,23h1v1h-1v-1zM29,22h3v1h-3v-1zM24,22h2v1h-2v-1zM20,22h2v1h-2v-1zM14,22h3v1h-3v-1zM11,22h2v1h-2v-1zM9,22h1v1h-1v-1zM6,22h2v1h-2v-1zM3,22h2v1h-2v-1zM0,22h1v1h-1v-1zM32,21h1v1h-1v-1zM26,21h2v1h-2v-1zM23,21h1v1h-1v-1zM18,21h1v1h-1v-1zM15,21h1v1h-1v-1zM13,21h1v1h-1v-1zM11,21h1v1h-1v-1zM7,21h2v1h-2v-1zM3,21h1v1h-1v-1zM0,21h2v1h-2v-1zM31,20h2v1h-2v-1zM27,20h3v1h-3v-1zM25,20h1v1h-1v-1zM22,20h1v1h-1v-1zM19,20h2v1h-2v-1zM16,20h1v1h-1v-1zM9,20h3v1h-3v-1zM6,20h1v1h-1v-1zM2,20h3v1h-3v-1zM27,19h6v1h-6v-1zM23,19h1v1h-1v-1zM20,19h2v1h-2v-1zM16,19h3v1h-3v-1zM13,19h1v1h-1v-1zM10,19h1v1h-1v-1zM7,19h1v1h-1v-1zM4,19h2v1h-2v-1zM0,19h1v1h-1v-1zM30,18h2v1h-2v-1zM27,18h2v1h-2v-1zM25,18h1v1h-1v-1zM21,18h2v1h-2v-1zM17,18h1v1h-1v-1zM15,18h1v1h-1v-1zM8,18h3v1h-3v-1zM6,18h1v1h-1v-1zM2,18h3v1h-3v-1zM0,18h1v1h-1v-1zM29,17h4v1h-4v-1zM23,17h5v1h-5v-1zM16,17h5v1h-5v-1zM14,17h1v1h-1v-1zM12,17h1v1h-1v-1zM8,17h1v1h-1v-1zM5,17h1v1h-1v-1zM32,16h1v1h-1v-1zM27,16h2v1h-2v-1zM24,16h2v1h-2v-1zM22,16h1v1h-1v-1zM19,16h1v1h-1v-1zM17,16h1v1h-1v-1zM10,16h4v1h-4v-1zM8,16h1v1h-1v-1zM3,16h4v1h-4v-1zM0,16h2v1h-2v-1zM29,15h2v1h-2v-1zM25,15h3v1h-3v-1zM18,15h4v1h-4v-1zM16,15h1v1h-1v-1zM12,15h2v1h-2v-1zM10,15h1v1h-1v-1zM7,15h2v1h-2v-1zM3,15h2v1h-2v-1zM0,15h2v1h-2v-1zM31,14h1v1h-1v-1zM28,14h2v1h-2v-1zM24,14h3v1h-3v-1zM22,14h1v1h-1v-1zM19,14h1v1h-1v-1zM17,14h1v1h-1v-1zM14,14h1v1h-1v-1zM11,14h2v1h-2v-1zM4,14h5v1h-5v-1zM2,14h1v1h-1v-1zM0,14h1v1h-1v-1zM29,13h4v1h-4v-1zM25,13h2v1h-2v-1zM20,13h2v1h-2v-1zM12,13h6v1h-6v-1zM10,13h1v1h-1v-1zM5,13h1v1h-1v-1zM0,13h1v1h-1v-1zM28,12h2v1h-2v-1zM25,12h1v1h-1v-1zM22,12h2v1h-2v-1zM18,12h1v1h-1v-1zM10,12h2v1h-2v-1zM5,12h4v1h-4v-1zM28,11h5v1h-5v-1zM25,11h2v1h-2v-1zM20,11h4v1h-4v-1zM14,11h3v1h-3v-1zM11,11h1v1h-1v-1zM9,11h1v1h-1v-1zM4,11h2v1h-2v-1zM0,11h3v1h-3v-1zM30,10h2v1h-2v-1zM28,10h1v1h-1v-1zM24,10h1v1h-1v-1zM20,10h2v1h-2v-1zM18,10h1v1h-1v-1zM15,10h1v1h-1v-1zM11,10h1v1h-1v-1zM8,10h2v1h-2v-1zM5,10h2v1h-2v-1zM1,10h2v1h-2v-1zM29,9h4v1h-4v-1zM26,9h2v1h-2v-1zM22,9h2v1h-2v-1zM18,9h3v1h-3v-1zM16,9h1v1h-1v-1zM12,9h1v1h-1v-1zM10,9h1v1h-1v-1zM8,9h1v1h-1v-1zM3,9h2v1h-2v-1zM26,8h5v1h-5v-1zM22,8h3v1h-3v-1zM20,8h1v1h-1v-1zM17,8h1v1h-1v-1zM9,8h7v1h-7v-1zM2,8h5v1h-5v-1zM0,8h1v1h-1v-1zM21,7h3v1h-3v-1zM15,7h1v1h-1v-1zM12,7h1v1h-1v-1zM8,7h2v1h-2v-1zM26,6h7v1h-7v-1zM24,6h1v1h-1v-1zM22,6h1v1h-1v-1zM20,6h1v1h-1v-1zM18,6h1v1h-1v-1zM16,6h1v1h-1v-1zM14,6h1v1h-1v-1zM12,6h1v1h-1v-1zM10,6h1v1h-1v-1zM8,6h1v1h-1v-1zM0,6h7v1h-7v-1zM32,5h1v1h-1v-1zM26,5h1v1h-1v-1zM20,5h2v1h-2v-1zM18,5h1v1h-1v-1zM13,5h4v1h-4v-1zM10,5h2v1h-2v-1zM8,5h1v1h-1v-1zM6,5h1v1h-1v-1zM0,5h1v1h-1v-1zM32,4h1v1h-1v-1zM28,4h3v1h-3v-1zM26,4h1v1h-1v-1zM23,4h1v1h-1v-1zM21,4h1v1h-1v-1zM18,4h1v1h-1v-1zM15,4h1v1h-1v-1zM12,4h1v1h-1v-1zM8,4h1v1h-1v-1zM6,4h1v1h-1v-1zM2,4h3v1h-3v-1zM0,4h1v1h-1v-1zM32,3h1v1h-1v-1zM28,3h3v1h-3v-1zM26,3h1v1h-1v-1zM22,3h1v1h-1v-1zM19,3h2v1h-2v-1zM16,3h1v1h-1v-1zM14,3h1v1h-1v-1zM11,3h2v1h-2v-1zM8,3h1v1h-1v-1zM6,3h1v1h-1v-1zM2,3h3v1h-3v-1zM0,3h1v1h-1v-1zM32,2h1v1h-1v-1zM28,2h3v1h-3v-1zM26,2h1v1h-1v-1zM21,2h1v1h-1v-1zM16,2h3v1h-3v-1zM12,2h2v1h-2v-1zM8,2h3v1h-3v-1zM6,2h1v1h-1v-1zM2,2h3v1h-3v-1zM0,2h1v1h-1v-1zM32,1h1v1h-1v-1zM26,1h1v1h-1v-1zM24,1h1v1h-1v-1zM21,1h2v1h-2v-1zM11,1h7v1h-7v-1zM6,1h1v1h-1v-1zM0,1h1v1h-1v-1zM26,0h7v1h-7v-1zM23,0h1v1h-1v-1zM16,0h6v1h-6v-1zM13,0h2v1h-2v-1zM11,0h1v1h-1v-1zM0,0h7v1h-7v-1z"/></svg>