<?xml version="1.0" encoding="UTF-8" standalone="no"?>
<!-- Created with Inkscape (http://www.inkscape.org/) -->

<svg
   width="32"
   height="32"
   viewBox="0 0 8.4666665 8.4666666"
   version="1.1"
   id="svg30010"
   xml:space="preserve"
   inkscape:export-filename="wedding_ring_favicon.png"
   inkscape:export-xdpi="96"
   inkscape:export-ydpi="96"
   inkscape:version="1.2.2 (b0a8486541, 2022-12-01)"
   sodipodi:docname="ring_icon.svg"
   xmlns:inkscape="http://www.inkscape.org/namespaces/inkscape"
   xmlns:sodipodi="http://sodipodi.sourceforge.net/DTD/sodipodi-0.dtd"
   xmlns="http://www.w3.org/2000/svg"
   xmlns:svg="http://www.w3.org/2000/svg"><sodipodi:namedview
     id="namedview30012"
     pagecolor="#ffffff"
     bordercolor="#000000"
     borderopacity="0.25"
     inkscape:showpageshadow="2"
     inkscape:pageopacity="0.0"
     inkscape:pagecheckerboard="0"
     inkscape:deskcolor="#d1d1d1"
     inkscape:document-units="mm"
     showgrid="false"
     inkscape:zoom="11.409259"
     inkscape:cx="18.055511"
     inkscape:cy="17.047557"
     inkscape:window-width="1366"
     inkscape:window-height="699"
     inkscape:window-x="0"
     inkscape:window-y="0"
     inkscape:window-maximized="1"
     inkscape:current-layer="layer1" /><defs
     id="defs30007" /><g
     inkscape:label="Layer 1"
     inkscape:groupmode="layer"
     id="layer1"><path
       style="fill:#000000;stroke-width:0.0107315"
       d="M 5.7666525,6.8646259 5.664704,6.8551915 5.5573895,6.8334394 5.4500747,6.8116875 5.3695926,6.7896805 5.289109,6.7676735 5.203255,6.7376357 5.1173998,6.7075981 5.0083998,6.6591919 4.8993985,6.6107813 4.8206006,6.5650087 4.7418026,6.519236 4.6505874,6.4581439 4.5593722,6.3970517 4.4886701,6.3390737 4.4179669,6.2810958 4.3464786,6.2155843 4.274993,6.1500728 v -0.015652 -0.015652 l 0.026425,-0.024822 0.026428,-0.024826 0.086708,0.08157 0.086708,0.081569 0.098882,0.074316 0.098882,0.074316 0.1018954,0.06238 0.1018945,0.06238 0.134143,0.061158 0.1341431,0.061158 0.099103,0.03373 0.099103,0.033731 0.1369856,0.031612 0.1369859,0.031612 0.1163893,0.012284 0.1163895,0.012274 0.2270172,-0.00556 0.227018,-0.00556 0.1407609,-0.028174 0.1407603,-0.028174 0.1221606,-0.03841 0.1221595,-0.03841 0.1073148,-0.0465 0.1073143,-0.0465 0.09122,-0.05043 0.09122,-0.050431 0.059023,-0.03852 0.059022,-0.03852 0.059023,-0.04316 0.059022,-0.04316 0.074544,-0.064572 0.074534,-0.064573 0.093647,-0.09659 0.093647,-0.096591 0.05613,-0.069754 0.05613,-0.069754 0.074081,-0.1126685 0.07408,-0.1126799 0.068214,-0.1395087 0.068214,-0.1395086 0.031835,-0.091219 0.031835,-0.091219 0.027591,-0.1019378 0.027588,-0.1019407 0.022262,-0.1287718 0.02226,-0.1287775 0.00656,-0.1609719 0.00656,-0.1609543 -0.01297,-0.133487 L 8.3728419,4.082695 8.3476884,3.9517591 8.3225351,3.8208244 8.2714017,3.666768 8.2202683,3.512712 8.1443838,3.3624711 8.0684995,3.2122304 8.0074375,3.1210147 7.9463755,3.0297991 7.8768798,2.9439452 7.8073842,2.8580901 7.7233728,2.7706466 7.6393617,2.6832026 7.5362908,2.5976331 7.4332182,2.5120755 7.3538471,2.4587068 7.2744757,2.4053381 7.1884845,2.3559096 7.102493,2.306482 7.0006806,2.2623097 6.8988677,2.2181374 6.8774017,2.2085991 6.8559357,2.1990606 6.7754533,2.1726691 6.6949708,2.1462759 6.6329234,2.1288568 6.5708781,2.1114399 6.4558607,2.0907372 6.3408427,2.070034 6.1872558,2.0579764 6.0336702,2.0459189 5.8700835,2.0577965 5.706498,2.0696743 l -0.10672,0.020725 -0.1067203,0.020725 -0.096587,0.026043 -0.096588,0.026043 -0.1073146,0.040252 -0.1073145,0.040252 -0.106077,0.053125 -0.106078,0.053125 -0.096272,0.059548 -0.09627,0.059548 -0.087363,0.06572 -0.087363,0.065721 -0.1166647,0.1126144 -0.1166657,0.1126144 -0.067896,0.081403 -0.067896,0.081403 -0.082367,0.1225604 -0.082364,0.1225605 -0.073522,0.1502406 -0.073523,0.1502398 -0.042184,0.1287776 -0.042184,0.1287773 -0.027323,0.1234124 -0.027322,0.1234121 -0.012348,0.1126798 -0.012348,0.1126801 5.713e-4,0.1663383 5.722e-4,0.1663372 0.015812,0.123412 0.015812,0.123411 0.026744,0.1126814 0.026743,0.1126795 0.039632,0.118047 0.039632,0.1180453 0.058099,0.1229691 0.058099,0.1229694 0.031884,0.04967 0.031869,0.04967 v 0.015275 0.015274 l -0.027786,0.029974 -0.027793,0.029977 -0.030283,-0.047754 -0.03028,-0.047753 L 3.8585878,5.5876514 3.8266205,5.5302034 3.7785352,5.4228835 3.7304358,5.3155678 3.6871005,5.1814235 3.6437652,5.0472803 3.6218007,4.9506196 3.5998361,4.8539578 3.5820887,4.6876949 3.5643413,4.5214327 l 0.00626,-0.1824349 0.00626,-0.1824345 0.017106,-0.1126804 0.017106,-0.1126801 0.036759,-0.1425692 0.036759,-0.1425686 0.050136,-0.1257179 0.050136,-0.1257178 0.05763,-0.1107228 0.05763,-0.1107229 0.056768,-0.087803 0.056768,-0.087803 0.089741,-0.1126817 0.089741,-0.1126799 0.1113705,-0.1101042 0.1113705,-0.1101044 0.1307216,-0.09764 0.1307222,-0.097639 0.089215,-0.052712 0.089224,-0.052712 0.071752,-0.035982 0.071752,-0.035982 0.123411,-0.049046 0.1234114,-0.049046 0.1180464,-0.03238 0.1180455,-0.03238 0.1341441,-0.024126 0.1341432,-0.024126 0.2790173,-1.823e-4 0.2790183,-1.822e-4 0.1341431,0.024199 0.1341442,0.0242 0.096585,0.027008 0.096589,0.027008 0.1180466,0.043685 0.1180456,0.043685 0.1366056,0.069178 0.1366043,0.069177 0.1245829,0.084086 0.1245827,0.084079 0.088553,0.076017 0.088553,0.076017 0.090684,0.094092 0.090685,0.094092 0.068472,0.085854 0.068472,0.085854 0.066367,0.1019467 0.066367,0.1019465 0.047601,0.09122 0.047601,0.09122 0.043977,0.1019467 0.043976,0.1019465 0.026741,0.085854 0.026741,0.085854 0.017372,0.064388 0.017372,0.064388 0.02411,0.1234123 0.02411,0.123412 v 0.3058489 0.305847 l -0.024924,0.123411 -0.024924,0.1234121 -0.021416,0.080479 -0.021416,0.080479 -0.021346,0.064388 -0.021346,0.064388 -0.02732,0.069754 -0.02732,0.069754 -0.058796,0.1169853 -0.058787,0.116986 -0.027548,0.043977 -0.027548,0.043977 -0.045456,0.069753 -0.045466,0.069754 -0.055692,0.069754 -0.055692,0.069754 -0.097978,0.1060429 -0.097978,0.1060421 -0.1185296,0.097004 -0.1185296,0.097004 -0.1042048,0.068452 -0.1041943,0.068452 -0.1211603,0.061854 -0.1211599,0.061854 -0.069754,0.027691 -0.069754,0.027694 -0.064388,0.022112 -0.064388,0.022112 -0.075122,0.021168 -0.075121,0.021168 -0.1073143,0.021694 -0.1073145,0.021694 -0.1287776,0.01118 -0.1287778,0.01118 -0.134144,-0.0013 -0.1341428,-0.0013 -0.1019469,-0.00944 z M 2.241368,6.7376698 2.1125899,6.7185769 2.0213746,6.6952882 1.9301589,6.6719995 1.8196556,6.6342483 1.7091521,6.5964969 1.6173964,6.5543061 1.5256407,6.5121154 1.4261394,6.4535551 1.3266481,6.3949939 1.2206105,6.3160684 1.1145736,6.2371429 1.0148708,6.1422501 0.91515756,6.0473573 0.84551398,5.9638547 0.7758704,5.8803521 0.69620297,5.7611084 0.61653615,5.6418626 0.55794355,5.5216237 0.49935098,5.401386 0.47268235,5.3316364 0.44601371,5.261887 0.42402825,5.1921375 0.4020428,5.1223879 0.38076722,5.030706 0.35949165,4.9390238 0.34266614,4.8183886 0.32584066,4.697755 V 4.4804856 4.2632171 l 0.0207032,-0.1821096 0.020703,-0.1821094 0.0225473,-0.1556063 0.0225473,-0.1556063 0.0102769,-0.059024 0.0102769,-0.059023 0.0216251,-0.1904516 0.0216251,-0.1904499 V 2.9497261 2.8106233 l -0.0120368,-0.083608 -0.0120368,-0.083608 -0.006778,-0.00726 -0.006778,-0.00726 L 0.22402544,2.5737489 0.00953631,2.5186327 0.00476815,2.5139387 0,2.5092448 0.04303851,2.4476978 0.08607746,2.3861518 0.18181766,2.248456 l 0.0957293,-0.1376957 0.003398,0.016603 0.003398,0.016603 -0.0168151,0.089732 -0.0168151,0.089732 v 0.016759 0.016768 l 0.0831632,0.022245 0.0831739,0.022249 0.1448752,0.037248 0.14487415,0.037238 0.10731554,0.028274 0.10731447,0.028275 0.14487378,0.038022 0.1448754,0.038022 0.067518,0.015863 0.067518,0.015864 0.014122,-0.00546 0.014122,-0.00546 0.02878,-0.1538472 0.02878,-0.1538488 0.042992,-0.2253609 0.042992,-0.2253601 0.02555,-0.1341431 0.02555,-0.1341442 0.00716,-0.049894 0.00716,-0.049894 -0.035926,-0.00763 -0.035926,-0.00763 -0.085854,-0.02473 -0.085854,-0.02473 0.01609,-0.00614 0.016094,-0.00613 0.101953,-0.015419 0.1019467,-0.015427 0.1019465,-0.017207 0.1019469,-0.017207 0.02561,-0.00561 0.0256,-0.00561 -0.00747,0.056908 -0.00746,0.056908 -0.032348,0.1645529 -0.032348,0.164554 0.00566,0.014738 0.00566,0.014738 0.046122,0.02953 0.046122,0.02953 0.1093,0.05642 0.1092986,0.05642 0.094591,0.036808 0.094591,0.036808 0.096589,0.032221 0.096591,0.032221 0.112681,0.034413 0.1126801,0.034425 0.053656,0.016062 0.053659,0.016062 0.1981783,0.063975 0.1981776,0.063975 0.1184005,0.048459 0.1183994,0.048458 0.1242766,0.061834 0.1242756,0.061834 0.079629,0.051076 0.079631,0.051075 0.088318,0.065978 0.088318,0.065978 2.192e-4,0.00606 2.192e-4,0.00606 -0.076071,0.1066851 -0.076059,0.1066843 -0.00338,0.00338 -0.00338,0.00338 -0.1091244,-0.0812 L 3.6296818,2.8852775 3.5533635,2.8407034 3.4770453,2.7961282 3.3873122,2.7546788 3.2975921,2.7132294 3.1714799,2.6715131 3.0454117,2.6298204 2.9222858,2.604508 2.7991585,2.579206 H 2.557703 2.3162455 L 2.1949756,2.60416 2.0737061,2.629104 1.9625422,2.665144 1.8513782,2.701178 1.7994322,2.7248 1.7474862,2.748422 1.6884642,2.777414 1.6294412,2.806402 1.5757872,2.836594 1.5221342,2.866786 1.4738362,2.899184 1.4255382,2.931582 1.3343182,3.004113 1.2430982,3.076643 1.1668342,3.155214 1.0905592,3.233795 1.0354832,3.301293 0.9804075,3.368781 0.9388099,3.43007 0.8972124,3.491359 0.8308743,3.6166138 0.7645363,3.7418692 0.7173972,3.8755421 0.6702582,4.0092136 0.6409728,4.1527155 0.6116874,4.2962178 l -6.5055e-4,0.2253609 -6.5056e-4,0.2253612 0.0197389,0.1073142 0.0197389,0.1073146 0.026149,0.09122 0.026149,0.09122 0.0327615,0.085587 0.0327614,0.085587 0.0324321,0.064656 0.0324323,0.064656 0.0433038,0.075124 0.0433038,0.075127 0.0738605,0.098821 0.0738647,0.098822 0.080954,0.086062 0.080954,0.086062 0.093011,0.074008 0.093011,0.074008 0.09122,0.05928 0.09122,0.05928 0.098745,0.048398 0.098745,0.048388 0.1105101,0.039414 0.1105089,0.039414 0.1145439,0.025434 0.1145437,0.025432 0.1161829,0.012679 0.1161825,0.012678 0.1663376,-0.00606 0.1663382,-0.00606 0.1395085,-0.02873 0.1395086,-0.02873 0.112681,-0.04021 0.1126801,-0.040214 0.080479,-0.03839 0.080479,-0.03839 0.08887,-0.053526 0.088881,-0.053526 0.094674,-0.07049 0.094673,-0.07049 0.1222948,-0.1264243 0.1222924,-0.1264338 0.072276,-0.1016948 0.072276,-0.1016957 0.074942,-0.1502397 0.074942,-0.1502405 0.027826,-0.085854 0.027826,-0.085854 0.025178,-0.1073154 0.025179,-0.1073147 0.00656,-0.042922 0.00656,-0.042922 0.00954,-0.1218068 0.00954,-0.1218 -0.00954,-0.1435257 -0.00954,-0.143543 -0.022487,-0.1102379 -0.022484,-0.1102438 -0.037148,-0.1121608 -0.037147,-0.1121595 -0.06496,-0.1346635 -0.06496,-0.1346634 0.029587,-0.057212 0.029587,-0.057211 0.048268,-0.075436 0.048268,-0.075437 0.019836,0.025332 0.019836,0.025332 0.05281,0.09122 0.05281,0.09122 0.042079,0.091538 0.042079,0.091538 0.03847,0.1123623 0.03847,0.1123629 0.021168,0.09122 0.021168,0.09122 0.01117,0.064388 0.01117,0.064388 0.01273,0.128515 0.01273,0.1285148 -0.00726,0.1290406 -0.00726,0.129039 -0.016439,0.1126811 -0.016438,0.1126799 -0.026256,0.1047678 -0.026256,0.1047666 -0.041232,0.1155706 -0.041232,0.1155705 -0.049095,0.1016081 -0.049105,0.101608 -0.060442,0.09659 -0.060442,0.096588 -0.074624,0.098296 -0.074624,0.098296 -0.1009312,0.1014341 -0.1009303,0.1014341 -0.083937,0.067746 -0.083936,0.067747 -0.1019465,0.066132 -0.1019468,0.06613 -0.085854,0.043866 -0.085854,0.043866 -0.1019466,0.042206 -0.1019467,0.042206 -0.053652,0.016864 -0.053659,0.016864 -0.1073148,0.026654 -0.1073145,0.026644 -0.1270418,0.017034 -0.1270431,0.017034 -0.1788049,-0.001 -0.1788036,-0.001 z M 0.82035356,3.1211525 0.90174744,3.0190129 1.0106047,2.9148703 1.119462,2.810728 1.110622,2.805268 1.101782,2.799808 1.059794,2.789868 1.017806,2.779928 0.869673,2.74113 0.72153864,2.702332 l -0.007515,2.12e-5 -0.007515,2.09e-5 v 0.2850905 0.2850759 l 0.0160979,-0.024666 0.016094,-0.024666 0.0813941,-0.1021511 z m 0.86608834,-0.6534918 0.039814,-0.020144 0.1126809,-0.03828 0.1126802,-0.03828 0.09122,-0.02079 0.09122,-0.02079 0.04164,-0.00739 0.04164,-0.0074 -0.00944,-0.00869 -0.00944,-0.00869 -0.1073098,-0.039685 -0.1073144,-0.03968 -0.1422942,-0.073076 -0.1422952,-0.073076 -0.00514,0.022917 -0.00514,0.022917 -0.032398,0.1724465 -0.032398,0.1724472 v 0.012679 0.012676 h 0.01116 0.01116 z m 3.9621649,4.2331614 -0.1448751,-0.02509 -0.1178519,-0.03418 -0.1178503,-0.03418 -0.06995,-0.027316 -0.06995,-0.027315 -0.096822,-0.045466 -0.096821,-0.045466 -0.1016519,-0.06193 -0.1016519,-0.06193 -0.097882,-0.073575 -0.097882,-0.073575 -0.081925,-0.076512 -0.081923,-0.076511 v -0.010042 -0.010042 l 0.054768,-0.07205 0.054768,-0.07205 0.00884,-0.00934 0.00884,-0.00934 0.1000915,0.090256 0.1000924,0.090256 0.085854,0.063485 0.085854,0.063484 0.069627,0.042407 0.069627,0.042407 0.091341,0.045138 0.091341,0.045138 0.085854,0.03359 0.085854,0.03359 0.092295,0.026398 0.092295,0.026397 0.1384323,0.024165 0.1384332,0.024166 0.209256,-4.268e-4 0.2092634,-4.29e-4 0.1287778,-0.023692 0.1287775,-0.023692 0.109674,-0.031579 0.1096741,-0.031574 0.1049583,-0.043638 0.1049524,-0.043638 0.1234121,-0.070276 0.1234123,-0.070276 0.1019432,-0.075451 0.1019445,-0.07545 0.134132,-0.1354416 0.1341431,-0.135441 0.085654,-0.1228651 0.085653,-0.1228647 0.076636,-0.1517039 0.076635,-0.1517049 0.02937,-0.090264 0.02937,-0.090263 0.025882,-0.106318 0.025897,-0.1063164 0.015853,-0.105562 0.015852,-0.1055619 -8.77e-5,-0.1690945 -8.06e-5,-0.169092 -0.021635,-0.1447811 -0.021634,-0.1447807 -0.00995,-0.032285 -0.00995,-0.032285 -0.02841,-0.096585 -0.028406,-0.096586 -0.026785,-0.064388 -0.026785,-0.064388 -0.046465,-0.092433 -0.04646,-0.092434 -0.045213,-0.073906 -0.045207,-0.0739 L 7.6814402,3.1420847 7.6030444,3.0397435 7.4870757,2.9271007 7.3711071,2.8144568 7.306719,2.7653151 7.2423306,2.7161735 7.1511147,2.6569562 7.0598987,2.5977384 6.9580982,2.5467851 6.8562975,2.4958317 6.7542003,2.4585044 6.652103,2.4211764 6.555515,2.3948787 6.4589274,2.3685809 6.3140619,2.3478989 6.1691878,2.3272164 6.0345986,2.3270502 5.9000095,2.3268839 l -0.1283316,0.016562 -0.1283315,0.016563 -0.069754,0.016606 -0.069754,0.016606 -0.075118,0.021546 -0.075122,0.021546 -0.085854,0.033074 -0.085854,0.033074 -0.1126801,0.058366 -0.11268,0.058367 -0.080479,0.053714 -0.080479,0.053714 -0.07318,0.058745 -0.073185,0.058745 -0.069834,0.065322 -0.069834,0.065322 -0.08164,0.097272 -0.08164,0.097272 -0.066614,0.1019467 -0.066614,0.1019466 -0.041948,0.080479 -0.041948,0.080479 -0.041382,0.1019469 -0.041382,0.1019465 -0.020104,0.064388 -0.020104,0.064388 -0.026664,0.123411 -0.026664,0.1234121 -0.012194,0.1571021 -0.012194,0.1571012 0.012014,0.1487447 0.012017,0.1487457 0.021586,0.1019467 0.021587,0.1019465 0.017104,0.059022 0.017106,0.059023 0.022708,0.064388 0.022708,0.064388 0.051836,0.1170048 0.051836,0.1170061 -0.00616,0.01929 -0.00616,0.01929 -0.053406,0.081801 -0.053406,0.081801 -0.012194,-0.00398 -0.012194,-0.00398 -0.039537,-0.074538 -0.039535,-0.074534 -0.045774,-0.1019463 -0.045774,-0.1019467 -0.030132,-0.09122 -0.030132,-0.09122 -0.016268,-0.059023 -0.016278,-0.059023 -0.0224,-0.1180464 -0.0224,-0.1180466 -0.00813,-0.1502397 -0.00813,-0.1502407 0.00834,-0.1511223 0.00834,-0.151122 0.02711,-0.1332617 0.02711,-0.1332619 0.027628,-0.09122 0.027628,-0.09122 0.03352,-0.085854 0.03352,-0.085854 0.045366,-0.093032 0.045366,-0.093032 0.061567,-0.1001316 0.061566,-0.1001285 0.070295,-0.09122 0.070295,-0.09122 L 4.3714674,2.8061079 4.4843443,2.689636 4.5755643,2.61701 4.6667843,2.544384 4.7687309,2.477482 4.8706777,2.41058 4.9618977,2.364726 5.0531177,2.318871 5.1550645,2.27597 5.257011,2.23307 5.332136,2.211021 5.407261,2.188973 5.466451,2.172561 5.525641,2.156149 5.6649867,2.132584 5.8043323,2.109019 l 0.214629,-3.857e-4 0.214629,-3.846e-4 0.1180464,0.018626 0.1180455,0.018626 0.09122,0.021445 0.09122,0.021445 0.1287778,0.043654 0.1287761,0.043654 0.1323209,0.064494 0.1323208,0.06449 0.1342657,0.08967 0.1342672,0.08966 0.1039079,0.090489 0.1039076,0.090498 0.075784,0.084154 0.075782,0.084154 0.070011,0.09122 0.070005,0.09122 0.071662,0.1196486 0.071662,0.1196485 0.052362,0.1169637 0.05236,0.1169637 0.032646,0.1014342 0.032646,0.1014341 0.021587,0.085854 0.021587,0.085854 0.019089,0.1126799 0.019073,0.1126803 -2.437e-4,0.2307265 -2.426e-4,0.2307266 -0.0191,0.1126799 -0.0191,0.11268 -0.026484,0.1047679 -0.026484,0.1047666 -0.042276,0.1184969 -0.042266,0.1184968 -0.05917,0.1201454 -0.05917,0.1201457 -0.065858,0.1019468 -0.065868,0.1019465 -0.077526,0.096592 -0.077526,0.096589 -0.081064,0.081811 -0.081065,0.081812 -0.08324,0.071036 -0.08324,0.071026 -0.1059116,0.070499 -0.1059117,0.0705 -0.1313195,0.068472 -0.1313191,0.068472 -0.1180457,0.042972 -0.1180466,0.042972 -0.085854,0.023036 -0.085854,0.023036 -0.1126811,0.021794 -0.11268,0.021794 -0.2629205,0.00358 -0.2629207,0.00358 z M 1.1837767,2.4765005 1.0501754,2.3800505 0.9965209,2.3428925 0.9428659,2.3057345 0.81485753,2.2112765 0.68684919,2.1168185 l -0.00318,-0.010381 -0.00318,-0.010381 0.15265435,-0.095995 0.15265318,-0.095994 0.089793,-0.057809 0.089791,-0.057809 0.00824,0.0089 0.00824,0.0089 0.017968,0.096588 0.017968,0.096587 0.01608,0.080483 0.01608,0.080483 0.037002,0.2030019 0.036999,0.2030014 -0.00318,0.00318 -0.00318,0.00318 z m -0.074584,0.05442 -0.026829,-0.0087 -0.17170264,-0.050227 -0.17170275,-0.050235 -0.19048418,-0.054694 -0.19048312,-0.054695 1.0913e-4,-0.00615 1.102e-4,-0.00615 0.0991515,-0.061877 0.0991516,-0.061877 0.0326546,-0.020937 0.0326546,-0.020937 L 0.86914419,2.3138487 1.116464,2.4932466 1.147697,2.5170496 1.178929,2.5408526 1.157463,2.5402701 1.135997,2.5396863 1.109165,2.5309563 Z M 1.3523182,2.4126796 1.3464937,2.396585 1.324751,2.2785384 1.3030094,2.160493 1.2644109,1.9578516 1.2258114,1.7552112 l 0.00884,-0.00783 0.00884,-0.00783 0.1215792,-0.077526 0.1215781,-0.077516 0.00606,0.00604 0.00606,0.00604 -0.02886,0.1746971 -0.02886,0.1746981 -0.02559,0.1556063 -0.0256,0.1556051 -0.00746,0.064388 -0.00746,0.064388 -0.00824,0.021466 -0.00824,0.021466 z m -1.02378187,-0.1851174 0.005188,-0.024147 0.0228653,-0.109139 0.0228653,-0.1091391 0.008151,-0.02206 0.00815,-0.02206 0.0888742,0.076679 0.0888741,0.076679 -0.0138912,0.012969 -0.0138911,0.012969 -0.1042481,0.065692 -0.10424812,0.065692 h -0.006996 -0.006996 z m 0.18101124,-0.2569601 -0.0894677,-0.076562 0.0253021,-0.019379 0.0253021,-0.019379 0.10531831,-0.065808 0.10531834,-0.065808 0.003916,0.00392 0.003916,0.00392 -0.0381642,0.1500955 -0.0381641,0.1500967 -0.006887,0.00773 -0.006881,0.00773 z m 0.15991326,0.059059 2.5641e-4,-0.00869 0.0403157,-0.1630898 0.0403157,-0.1630908 0.006678,-0.00668 0.006678,-0.00668 0.0413222,0.010277 0.0413222,0.010277 0.13146028,0.023988 0.13146038,0.023988 v 0.00668 0.00668 l -0.20658231,0.129877 -0.20657966,0.1298754 -0.0134142,0.00751 -0.0134142,0.00751 z m 0.30799148,-0.3572018 -0.14783983,-0.029434 -0.004452,-0.00445 -0.004452,-0.00445 0.12229957,-0.077442 0.12229845,-0.077442 0.01289,-0.00286 0.0129,-0.00286 0.023692,0.075121 0.023692,0.075121 0.00716,0.040241 0.00716,0.040241 -0.013895,-0.00127 -0.013894,-0.00127 z m 0.22925279,-0.00318 -0.00934,-0.024529 -0.02394,-0.088705 -0.02394,-0.088705 0.00398,-0.00308 0.00398,-0.00308 0.1532183,0.036703 0.1532178,0.036713 -0.024438,0.018457 -0.024438,0.018457 -0.099508,0.061188 -0.099507,0.061188 z"
       id="path30143"
       inkscape:export-filename="wedding_ring_cursor.png"
       inkscape:export-xdpi="96"
       inkscape:export-ydpi="96" /></g></svg>
