<?xml version="1.0" encoding="UTF-8" standalone="no"?>
<svg
   shape-rendering="geometricPrecision"
   text-rendering="geometricPrecision"
   image-rendering="optimizeQuality"
   fill-rule="evenodd"
   clip-rule="evenodd"
   viewBox="0 0 512 497.34"
   version="1.1"
   id="svg26269"
   sodipodi:docname="rsvp-icon.svg"
   inkscape:version="1.2.2 (b0a8486541, 2022-12-01)"
   xmlns:inkscape="http://www.inkscape.org/namespaces/inkscape"
   xmlns:sodipodi="http://sodipodi.sourceforge.net/DTD/sodipodi-0.dtd"
   xmlns="http://www.w3.org/2000/svg"
   xmlns:svg="http://www.w3.org/2000/svg">
  <defs
     id="defs26273" />
  <sodipodi:namedview
     id="namedview26271"
     pagecolor="#ffffff"
     bordercolor="#000000"
     borderopacity="0.25"
     inkscape:showpageshadow="2"
     inkscape:pageopacity="0.0"
     inkscape:pagecheckerboard="0"
     inkscape:deskcolor="#d1d1d1"
     showgrid="false"
     inkscape:zoom="1.2647284"
     inkscape:cx="204.78706"
     inkscape:cy="160.90412"
     inkscape:window-width="1536"
     inkscape:window-height="795"
     inkscape:window-x="0"
     inkscape:window-y="0"
     inkscape:window-maximized="1"
     inkscape:current-layer="svg26269" />
  <path
     fill-rule="nonzero"
     d="m 479.66,181.91 c 3.25,-2.8 6.85,-4.04 10.59,-4.04 12.37,0 21.75,14.47 21.75,25.76 v 269.1 c 0,13.49 -11.12,24.61 -24.62,24.61 H 24.61 C 11.11,497.34 0,486.22 0,472.73 v -269.1 c 0,-11.23 9.26,-25.77 21.75,-25.77 2.94,0 5.8,0.76 8.46,2.47 V 11.91 C 30.21,5.33 35.55,0 42.14,0 h 338.28 c 3.68,0 6.97,1.66 9.16,4.29 l 86.69,78.17 c 2.24,2.31 3.37,5.29 3.37,8.28 h 0.02 z M 376.49,22.44 H 54.05 V 201.32 L 253.5,366.9 455.83,202.73 V 93.56 Z M 488.17,440.33 V 206.02 L 332.71,329.25 Z M 177.18,330.55 23.83,206.15 v 233.63 z m 68.32,61.04 -50.47,-45.1 -171.2,124.87 v 1.37 c 0,0.23 0.08,0.42 0.19,0.54 l 0.05,0.04 c 0.12,0.11 0.3,0.19 0.54,0.19 h 462.77 c 0.24,0 0.43,-0.08 0.55,-0.19 v 0.01 l 0.05,-0.06 c 0.12,-0.11 0.19,-0.3 0.19,-0.54 v -0.81 L 314.66,345 l -53.42,46.69 -0.01,-0.01 c -4.44,3.9 -11.21,3.94 -15.73,-0.09 z"
     id="path26267"
     sodipodi:nodetypes="csssssssscssscccccccccccccccccccccccsccsscccsccccc" />
  <g
     aria-label="RSVP"
     id="text26490"
     style="font-size:128px;font-family:cmsy10;-inkscape-font-specification:cmsy10;opacity:0.922114;fill-opacity:0.996961;stroke-width:0;stroke-dashoffset:5.00787">
    <path
       d="m 90.463455,188.02939 q 0,-0.25 0.125,-0.6875 4.4375,-10.625 7.6875,-20.3125 3.250005,-9.6875 6.000005,-20.625 5,-19.375 6.75,-40.0625 -6.8125,0 -13.437505,2.4375 -3.4375,1.375 -5.25,3.5625 -1.75,2.125 -2.9375,5.9375 -1.25,2.125 -4.25,4 -3,1.875 -5.3125,1.875 h -0.8125 q -0.875,-0.5625 -0.875,-1.3125 2.25,-7.75 9.1875,-13.1875 6.9375,-5.4375 16.125005,-8.125 9.1875,-2.750002 17.4375,-2.750002 h 13.4375 q 8.9375,0 16.125,0.8125 7.25,0.812502 13.0625,4.375002 5.875,3.5625 5.875,10.8125 0,5.8125 -2.75,11.1875 -2.6875,5.3125 -7.1875,9.625 -4.4375,4.25 -9.8125,7.5 -5.375,3.1875 -10.8125,5.125 1.9375,2.3125 4.5,8 2.625,5.625 5.5625,11.8125 2.9375,6.125 5.8125,9.8125 2.9375,3.625 6.125,3.625 3.75,0 5.875,-1.375 2.1875,-1.4375 4.5,-4.25 2.3125,-2.875 4.4375,-4.5 2.125,-1.6875 5.6875,-2 h 0.75 q 0.875,0.4375 0.875,1 0,0.1875 -0.125,0.5 -0.125,0.3125 -0.25,0.625 -3.125,4.6875 -8.1875,8.8125 -5,4.125 -10.8125,6.4375 -5.8125,2.3125 -11.3125,2.3125 h -0.8125 q -4.9375,0 -8.3125,-4.75 -3.375,-4.8125 -7.375,-14.25 -4,-9.5 -7.0625,-14.125 -3,-4.625 -7.4375,-4.625 -0.25,-0.125 -0.5625,-0.375 -0.3125,-0.25 -0.3125,-0.625 0,-2.0625 3.6875,-4.1875 3.75,-2.125 6,-2.375 7.0625,0 13.5,-2.75 6.5,-2.75 10.4375,-8.0625 4,-5.375 4,-12.5 0,-6.4375 -5.6875,-9.5 -5.625,-3.125 -12.5625,-3.8125 -6.9375,-0.75 -15.0625,-0.75 h -2.8125 q -2,19.0625 -7.125,38.5 -5.0625,19.375 -13.0625,38.3125 -1.25,2.25 -4.187505,3.9375 -2.875,1.6875 -5.5625,1.9375 h -0.625 q -0.25,-0.125 -0.5625,-0.375 -0.3125,-0.25 -0.3125,-0.625 z"
       id="path28617" />
    <path
       d="m 186.46346,170.34189 q 0,-7.375 5.625,-13.1875 2.4375,-2.25 5.625,-3.8125 3.1875,-1.5625 6.125,-1.5625 h 0.8125 q 0.875,0.4375 0.875,1 0,0.6875 -0.4375,1.3125 -0.4375,0.5625 -0.875,0.9375 -0.4375,0.375 -1.375,1.125 -0.8125,0.625 -1.8125,1.1875 -0.9375,0.5 -1.3125,0.875 -0.375,0.3125 -0.8125,1.25 -1.0625,2.625 -1.0625,5.375 0,5.0625 3.625,8.875 3.6875,3.75 9.0625,5.75 5.4375,2 10.5,2 6.5,0 12.1875,-2 5.75,-2 9.375,-6.1875 3.625,-4.1875 3.625,-10.75 0,-4 -1.9375,-7.1875 -1.875,-3.1875 -5.125,-5.6875 -3.25,-2.5 -6.375,-4.0625 -3.125,-1.625 -7.4375,-3.5625 -7.4375,-3.4375 -12.125,-7.75 -4.625,-4.375 -4.625,-10.625 0,-7.6875 6.0625,-14.0625 6.0625,-6.375 14.9375,-10.000002 8.875,-3.625 16,-3.625 h 0.75 q 4.3125,0 8.9375,1.1875 4.6875,1.125 7.875,3.875002 3.1875,2.75 3.1875,7.25 0,5.375 -2.6875,8.0625 -4.5,3.375 -7.9375,3.6875 h -0.75 q -0.9375,-0.4375 -0.9375,-1.125 0.25,-1.125 0.375,-1.625 0.1875,-0.5 0.375,-1.5 0.1875,-1 0.1875,-1.875 0,-5.625 -5.6875,-8 -5.625,-2.375 -12.25,-2.375 -7.3125,0 -12.1875,3.8125 -4.875,3.8125 -4.875,10.625 0,9.625 15,16.5625 6.25,2.75 11.0625,5.5625 4.8125,2.75 8.1875,6.9375 3.4375,4.1875 3.4375,9.875 0,9.25 -7.375,16.625 -7.375,7.375 -18.125,11.4375 -10.75,4.0625 -19.6875,4.0625 h -0.6875 q -5.375,0 -11.375,-2.25 -6,-2.25 -10,-6.5 -3.9375,-4.25 -3.9375,-9.9375 z"
       id="path28619" />
    <path
       d="m 284.90096,190.02939 q -0.0625,0 0.5,-3.1875 2.9375,-21.375 2.9375,-36.1875 0,-7.6875 -0.6875,-14.75 -0.625,-7.0625 -2.8125,-14.0625 -2.1875,-7.0625 -6.6875,-11.625 -4.4375,-4.625 -11.5625,-4.625 -0.875,-0.375 -0.875,-1.1875 0,-1.25 1.375,-2.4375 1.375,-1.25 3.375,-2.125002 2,-0.875 3.1875,-1.0625 h 0.875 q 14.25,0 18.9375,14.625002 4.75,14.625 4.75,32.75 0,12.3125 -1.9375,28.6875 6.1875,-5.0625 11.5625,-10 5.4375,-4.9375 10.25,-10 4.875,-5.125 9.4375,-10.75 3.1875,-4.125 5.5625,-7.625 2.4375,-3.5 4.5625,-7.6875 2.125,-4.25 2.125,-7.0625 0,-3.125 -1.5,-5.5 -1.4375,-2.4375 -4,-3.75 -2.5625,-1.375 -5.75,-1.375 -0.875,0 -0.875,-2.3125 0,-2.4375 1.625,-6.1875 1.625,-3.812502 3.625,-3.812502 4.0625,0 7.0625,2.062502 3,2.0625 4.5,5.5625 1.5,3.4375 1.5,7.5 0,9.3125 -5.9375,20.5625 -5.875,11.25 -15.25,22.375 -9.3125,11.125 -19.375,20.25 -10,9.0625 -18.4375,14.875 -0.625,0.375 -1.0625,0.375 -1,0 -1,-2.3125 z"
       id="path28621" />
    <path
       d="m 353.71346,191.84189 q 0,-0.375 0.125,-0.625 4.3125,-10.5 7.8125,-21.1875 3.5625,-10.6875 6.4375,-21.6875 5.3125,-21.6875 7.125,-42 -6.8125,0 -13.4375,2.4375 -3.4375,1.375 -5.25,3.5625 -1.75,2.125 -2.9375,5.9375 -1.25,2.125 -4.25,4 -3,1.875 -5.3125,1.875 h -0.8125 q -0.875,-0.5625 -0.875,-1.3125 2.25,-7.75 9.1875,-13.1875 6.9375,-5.4375 16.125,-8.125 9.1875,-2.750002 17.4375,-2.750002 h 16.375 q 5.4375,0 10.875,1.0625 5.5,1.000002 10.375,3.375002 4.875,2.375 7.9375,6.375 3.0625,3.9375 3.0625,9.6875 0,5.8125 -2.8125,11.3125 -2.8125,5.4375 -7.125,9.9375 -4.3125,4.4375 -9.75,8.1875 -8.0625,5.3125 -16.9375,8.3125 -8.875,2.9375 -17.875,2.9375 h -0.6875 q -0.25,-0.125 -0.5625,-0.375 -0.3125,-0.25 -0.3125,-0.625 0,-2.125 3.6875,-4.1875 3.75,-2.125 6.0625,-2.375 6.3125,0 12.4375,-1.6875 6.1875,-1.75 11,-5.3125 3.3125,-2.625 5.8125,-5.8125 2.5625,-3.25 4.125,-7.0625 1.5625,-3.875 1.5625,-7.875 0,-6.6875 -4.9375,-10.8125 -4.875,-4.1875 -11.9375,-5.8125 -7.0625,-1.6875 -13.625,-1.6875 h -5.75 q -1.1875,10.875 -3.125,20.9375 -1.875,10 -4.5,19.75 -2.5625,9.75 -6.0625,20.125 -3.5,10.375 -7.4375,19.8125 -1.375,2.25 -4.125,3.875 -2.75,1.6875 -5.5625,2 h -0.625 q -0.5,-0.25 -0.6875,-0.375 -0.125,-0.0625 -0.1875,-0.1875 -0.0625,-0.0625 -0.0625,-0.4375 z"
       id="path28623" />
  </g>
  <path
     style="opacity:1;fill:none;fill-opacity:0.996961;fill-rule:evenodd;stroke:#000000;stroke-width:7.7;stroke-linecap:round;stroke-dasharray:none;stroke-dashoffset:5.00787;stroke-opacity:1"
     d="m 117.37601,231.15655 c 0,0 124.69185,-36.09489 197.71272,-20.19213 73.02087,15.90276 103.50046,-11.05321 103.50046,-11.05321"
     id="path27796" />
</svg>
